<svg width="522" height="505" viewBox="0 0 522 505" fill="none" xmlns="http://www.w3.org/2000/svg">
<path fill-rule="evenodd" clip-rule="evenodd" d="M416.211 8.18182L377 135V247.5L447.662 270L522 226.636L497.493 58.0909L447.662 0L416.211 8.18182ZM416.211 153.409L429.282 76.0909H464.817L477.887 121.909L464.817 209.864L416.211 201.682V153.409Z" fill="#E7C344"/>
<path fill-rule="evenodd" clip-rule="evenodd" d="M0 281.461L31.5643 44H106.581L223 281.461H153.313L106.581 149.039L65.1783 158.848L52.0607 288L0 281.461ZM65.1783 126.151V82.4188L93.8732 90.1843V117.977L65.1783 126.151Z" fill="#F276B6"/>
<path fill-rule="evenodd" clip-rule="evenodd" d="M245 241L212 41.2349L271.4 27.9999L344 61.0873V111.132L263.562 137.602L299.037 223.629L245 241ZM263.562 111.132L245 61.0873L315.125 73.0815L263.562 111.132Z" fill="#E43E33"/>
<path fill-rule="evenodd" clip-rule="evenodd" d="M273.922 320.52L304.105 469.045L393.846 478.073L427.296 397.472L404.177 283.708L324.35 237.878L273.922 320.52ZM334.32 423.418L315.247 361.951L338.478 307.401L369.628 301.071L376.048 390.493L334.32 423.418Z" fill="#138D47"/>
<path d="M133 494.164L167.984 318H209.468L174.485 461.656L246 473.421L209.468 505L133 494.164Z" fill="#3EA0E4"/>
<path d="M16 469.661L34.0112 318H81.3346L47.4312 438.124H111V481L16 469.661Z" fill="#FFD542"/>
</svg>
