<svg width="1103" height="311" viewBox="0 0 1103 311" fill="none" xmlns="http://www.w3.org/2000/svg">
<path d="M627 61L624 310.5H662V182.5H699.5L691.5 310.5L741 299.5L727 61L699.5 68V152H662L655.5 57L627 61Z" fill="#3EA0E4"/>
<path d="M768.5 132L759 299.5H818L805 132H768.5Z" fill="#138D47"/>
<path d="M818 84.5C818 99.6878 805.688 112 790.5 112C775.312 112 763 99.6878 763 84.5C763 69.3122 775.312 57 790.5 57C805.688 57 818 69.3122 818 84.5Z" fill="#138D47"/>
<path d="M1038.18 132L1017 276.356L1087.01 300L1103 267.644L1044.23 255.615L1072.75 146.104L1038.18 132Z" fill="black"/>
<path fill-rule="evenodd" clip-rule="evenodd" d="M941.813 106.021L904.272 157.086L899.083 212.946L912.539 279.927L957.467 295.28L985.314 282.663L995.187 298.783L1011.35 280.163L998.152 266.864L1014.17 183.84L995.14 110.974L941.813 106.021ZM926.971 199.886L937.859 148.58L966.821 133.384L982.93 157.685L982.675 212.215L965.635 263.843L928.511 249.216L926.971 199.886Z" fill="black" stroke="black"/>
<path fill-rule="evenodd" clip-rule="evenodd" d="M202.03 306L177 105.879L214.333 87H277.545L302.576 138.184V190.207L259.727 204.052L359 268.661L302.576 306L223.242 204.052L232.152 306H202.03ZM232.152 169.23L214.333 138.184L223.242 119.305L266 114L277.545 157.902L232.152 169.23Z" fill="#E43E33"/>
<path fill-rule="evenodd" clip-rule="evenodd" d="M327 233.251L360.535 43.7828L412.096 27L493 273H437.667L402.035 143.596L378.561 154.196V233.251H327ZM381.914 103.847L388.202 66.307L404.551 104.731L381.914 103.847Z" fill="#FDA655"/>
<path fill-rule="evenodd" clip-rule="evenodd" d="M483 53.5L458 304H512.5V183.5H581L609.5 121L590.5 62L526.5 37L483 53.5ZM512.5 146V103L526.5 89H548L561 121L512.5 146Z" fill="#FFD542"/>
<path d="M158.081 116.172L81.1425 82L32.3729 107.297L0 196.5L21.4418 289.698L123.185 311L177 238.661L143.366 188.512L123.185 205.82L143.366 225.347L117.299 242.655H66.0071L32.3729 196.5L51.2922 141.469L81.1425 130.818L117.299 156.5L158.081 141.469V116.172Z" fill="#F276B6"/>
</svg>
