<svg width="758" height="227" viewBox="0 0 758 227" fill="none" xmlns="http://www.w3.org/2000/svg">
<path d="M0.5 153L45.5 95L69 89L90.5 107L73 124L61.5 117L18.5 155V183L31 200L54.5 187V174.5L27.5 171L31 153L83.5 162L88.5 200L31 223L0.5 200V153Z" fill="black"/>
<path fill-rule="evenodd" clip-rule="evenodd" d="M132.5 220L118 97.5L153.5 79.5L201 110.5V149.5L167 168L224.5 197.5L212 226.5L158.5 185V220H132.5ZM144 153.5V121.5L153.5 107.5L170 110.5L174.5 139L144 153.5Z" fill="black"/>
<path fill-rule="evenodd" clip-rule="evenodd" d="M243 205.5L262 86.5H302L327.5 205.5H302L285.5 146.5H271V191L243 205.5ZM293.5 126.5H275L290.5 103L293.5 126.5Z" fill="black"/>
<path fill-rule="evenodd" clip-rule="evenodd" d="M358 205.5L367.5 70L410.5 60.5L431.5 94L418 123.5L382 114V192L358 205.5ZM414 94L390 98.5V83L410.5 78.5L414 94Z" fill="black"/>
<path d="M442 180.5L440.5 104H456.5V131.5H474.5L473 95.5H491.5V180.5H474.5V148.5H456.5V173L442 180.5Z" fill="black"/>
<path fill-rule="evenodd" clip-rule="evenodd" d="M558.5 0.5L521 61.5V124.5L543.5 198L596.5 210.5L627 193.5L640 210.5L656.5 188L640 174.5L649.5 80L620 0.5H558.5ZM551.5 107L558.5 48.5L590 28.5L611 54L616.5 115L602.5 174.5L558.5 162L551.5 107Z" fill="black" stroke="black"/>
<path d="M682.5 5L658 179L739 207.5L757.5 168.5L689.5 154L722.5 22L682.5 5Z" fill="black"/>
</svg>
