<svg width="1440" height="780" viewBox="0 0 1440 780" fill="none" xmlns="http://www.w3.org/2000/svg">
<path d="M53.8776 777.576C74.9221 684.2 166.421 490.819 364.062 464.298C611.112 431.148 789.713 612.305 1066.16 555.479C1287.32 510.017 1472.98 167.625 1538.17 2.11119M-9.22097 451.838C27.6487 522.689 151.724 654.364 353.069 614.259C604.75 564.128 940.08 97.0631 1262.15 134.758C1519.8 164.914 1738.81 206.601 1816.1 223.675M-4.58385 635.541C8.98734 523.213 96.1381 288.193 336.172 246.743C636.214 194.929 860.731 399.473 1184.82 336.279C1444.09 285.723 1614.96 133.043 1668 63.0229" stroke="white" stroke-opacity="0.8" stroke-width="3" stroke-linecap="round"/>
</svg>
