<svg width="32" height="32" viewBox="0 0 32 32" fill="none" xmlns="http://www.w3.org/2000/svg">
<path d="M17.9593 7.84H14.0805L8.47998 22.3757H11.9883L12.9037 19.9128H18.1958L17.2376 17.189H13.7537L16.02 10.9344L20.0518 22.3757H23.5603L17.9593 7.84Z" fill="white"/>
<path d="M31.4101 11.6861C31.4009 11.6371 31.3872 11.589 31.3691 11.5426C31.3648 11.5266 31.3499 11.497 31.3499 11.497C31.2862 11.3579 31.184 11.24 31.0552 11.1574C30.9265 11.0747 30.7768 11.0308 30.6238 11.0307C30.4117 11.0307 30.2082 11.115 30.0582 11.265C29.9081 11.4151 29.8238 11.6185 29.8238 11.8307C29.8238 11.9206 29.8395 12.0067 29.8667 12.0872L29.8645 12.088C30.221 13.3614 30.4012 14.6778 30.3998 16.0002C30.3998 19.8464 28.9019 23.4627 26.1824 26.1826C23.4626 28.9026 19.8464 30.4002 16 30.4002C12.1538 30.4002 8.53728 28.9022 5.81776 26.1826C3.0976 23.4627 1.6 19.8464 1.6 16.0002C1.6 12.1538 3.09792 8.5376 5.81776 5.81776C8.53728 3.09776 12.1538 1.60016 16 1.60016C19.4346 1.60016 22.685 2.79536 25.2779 4.98784C25.1882 5.21584 25.1422 5.45867 25.1422 5.70368C25.1422 6.78384 26.0178 7.65904 27.0981 7.65904C28.1781 7.65904 29.0538 6.78384 29.0538 5.70368C29.0538 4.62352 28.1781 3.74784 27.0981 3.74784C26.8624 3.74784 26.6366 3.78944 26.4274 3.86576C23.6266 1.45712 19.984 0 16 0C7.16336 0 0 7.16352 0 16.0002C0 24.8368 7.16336 32.0003 16 32.0003C24.8366 32.0003 32 24.837 32 16.0002C32 14.5054 31.7934 13.0587 31.4101 11.6861Z" fill="white"/>
</svg>
