<svg width="32" height="32" viewBox="0 0 32 32" fill="none" xmlns="http://www.w3.org/2000/svg">
<path d="M31.4101 11.6861C31.4009 11.6371 31.3872 11.589 31.3691 11.5426C31.3648 11.5266 31.3499 11.497 31.3499 11.497C31.2862 11.3579 31.184 11.24 31.0552 11.1574C30.9265 11.0747 30.7768 11.0308 30.6238 11.0307C30.4117 11.0307 30.2082 11.115 30.0582 11.265C29.9081 11.4151 29.8238 11.6185 29.8238 11.8307C29.8238 11.9206 29.8395 12.0067 29.8667 12.0872L29.8645 12.088C30.221 13.3614 30.4012 14.6778 30.3998 16.0002C30.3998 19.8464 28.9019 23.4627 26.1824 26.1826C23.4626 28.9026 19.8464 30.4002 16 30.4002C12.1538 30.4002 8.53728 28.9022 5.81776 26.1826C3.0976 23.4627 1.6 19.8464 1.6 16.0002C1.6 12.1538 3.09792 8.5376 5.81776 5.81776C8.53728 3.09776 12.1538 1.60016 16 1.60016C19.4346 1.60016 22.685 2.79536 25.2779 4.98784C25.1882 5.21584 25.1422 5.45867 25.1422 5.70368C25.1422 6.78384 26.0178 7.65904 27.0981 7.65904C28.1781 7.65904 29.0538 6.78384 29.0538 5.70368C29.0538 4.62352 28.1781 3.74784 27.0981 3.74784C26.8624 3.74784 26.6366 3.78944 26.4274 3.86576C23.6266 1.45712 19.984 0 16 0C7.16336 0 0 7.16352 0 16.0002C0 24.8368 7.16336 32.0003 16 32.0003C24.8366 32.0003 32 24.837 32 16.0002C32 14.5054 31.7934 13.0587 31.4101 11.6861Z" fill="white"/>
<path d="M16.644 23.252C14.278 23.252 12.5 22.629 11.31 21.383C10.12 20.137 9.525 18.289 9.525 15.839C9.525 14.341 9.812 13.053 10.386 11.975C10.96 10.883 11.793 10.05 12.885 9.476C13.977 8.902 15.272 8.615 16.77 8.615C18.59 8.615 20.361 8.979 22.083 9.707C21.943 11.051 21.747 12.395 21.495 13.739L19.899 13.844L18.576 11.912C17.876 11.66 17.008 11.534 15.972 11.534C15.482 11.534 14.894 11.583 14.208 11.681C13.956 12.101 13.76 12.661 13.62 13.361C13.48 14.061 13.41 14.817 13.41 15.629C13.41 17.239 13.732 18.443 14.376 19.241C15.02 20.025 16.021 20.424 17.379 20.438C17.715 20.438 18.142 20.41 18.66 20.354V18.821C18.66 18.541 18.639 18.359 18.597 18.275C18.555 18.191 18.436 18.093 18.24 17.981L17.442 17.582L17.526 16.154L18.009 16.07C18.163 16.042 18.709 15.958 19.647 15.818C20.585 15.664 21.369 15.573 21.999 15.545C22.139 15.811 22.244 16.112 22.314 16.448V21.95C21.502 22.356 20.599 22.678 19.605 22.916C18.611 23.14 17.624 23.252 16.644 23.252Z" fill="white"/>
</svg>
