<svg width="121" height="45" viewBox="0 0 121 45" fill="none" xmlns="http://www.w3.org/2000/svg">
<g clip-path="url(#clip0_11_370)">
<path d="M62.47 14.905L68.2267 14.5324C68.358 15.4749 68.5988 16.1763 68.9928 16.6805C69.6275 17.4695 70.5031 17.8641 71.6632 17.8641C72.5168 17.8641 73.1954 17.6668 73.655 17.2504C74.0928 16.9216 74.3555 16.3955 74.3555 15.8475C74.3555 15.3215 74.1147 14.8173 73.6988 14.4885C73.261 14.094 72.2323 13.6995 70.6125 13.3488C67.964 12.7569 66.0597 11.9678 64.9434 10.9596C63.8271 10.017 63.1923 8.63613 63.2361 7.16755C63.2361 6.15927 63.5425 5.15099 64.1116 4.31806C64.7683 3.37554 65.6657 2.63029 66.7382 2.21383C67.8983 1.70969 69.5181 1.44666 71.5537 1.44666C74.049 1.44666 75.9533 1.90696 77.2666 2.84948C78.58 3.77008 79.368 5.26059 79.6087 7.29907L73.9177 7.62785C73.7645 6.75109 73.458 6.11543 72.9546 5.69897C72.4512 5.28251 71.7945 5.08523 70.9408 5.08523C70.2404 5.08523 69.7151 5.23867 69.3649 5.52362C69.0365 5.78665 68.8177 6.18119 68.8395 6.61957C68.8395 6.94836 69.0147 7.25523 69.2773 7.4525C69.5619 7.71553 70.2404 7.95664 71.313 8.17583C73.9615 8.74573 75.8439 9.31563 77.004 9.90744C78.1641 10.4993 78.9958 11.2226 79.4993 12.0774C80.0246 12.9542 80.2873 13.9625 80.2654 14.9927C80.2654 16.2202 79.9152 17.4476 79.2147 18.4778C78.4924 19.5519 77.4855 20.3848 76.3036 20.8889C75.0559 21.4369 73.4799 21.7219 71.5975 21.7219C68.2704 21.7219 65.9721 21.0862 64.6807 19.793C63.3893 18.4998 62.6232 16.8777 62.47 14.905ZM1.37898 21.3931V1.79736H11.4696C13.3301 1.79736 14.7748 1.9508 15.7598 2.27958C16.7229 2.58645 17.5765 3.22211 18.1456 4.07695C18.7804 5.01948 19.0868 6.11543 19.0649 7.25523C19.1306 9.18411 18.1456 11.0253 16.4602 11.9898C15.8035 12.3624 15.0812 12.6254 14.337 12.7569C14.8842 12.9104 15.4314 13.1734 15.913 13.4803C16.2851 13.7871 16.5915 14.1378 16.8761 14.5105C17.2044 14.8831 17.489 15.2996 17.7297 15.7379L20.6628 21.415H13.7898L10.5503 15.3872C10.1344 14.6201 9.78419 14.1159 9.45586 13.8748C9.01809 13.5679 8.49276 13.4145 7.96744 13.4145H7.44211V21.3712H1.37898V21.3931ZM7.44211 9.73209H10.0031C10.5503 9.68825 11.0756 9.60058 11.6009 9.46906C11.9949 9.4033 12.3452 9.18411 12.5859 8.85533C13.1769 8.06624 13.0894 6.94836 12.367 6.26887C11.973 5.94008 11.2069 5.76473 10.1125 5.76473H7.44211V9.73209ZM0 38.1831L5.75669 37.8105C5.88802 38.753 6.1288 39.4544 6.52279 39.9586C7.13567 40.7477 8.0331 41.1641 9.1932 41.1641C10.0469 41.1641 10.7254 40.9669 11.1851 40.5504C11.6228 40.1997 11.8855 39.6956 11.8855 39.1476C11.8855 38.6215 11.6447 38.1174 11.2288 37.7886C10.7911 37.394 9.7623 36.9995 8.12066 36.6488C5.47214 36.057 3.56784 35.2679 2.45152 34.2596C1.3352 33.3171 0.700434 31.9362 0.744211 30.4676C0.744211 29.4593 1.05065 28.451 1.61975 27.6181C2.27641 26.6756 3.17384 25.9303 4.24638 25.5139C5.40648 25.0097 7.02623 24.7467 9.06187 24.7467C11.5572 24.7467 13.4615 25.207 14.7748 26.1495C16.0881 27.0921 16.8542 28.5606 17.095 30.5991L11.4039 30.9279C11.2507 30.0511 10.9443 29.4155 10.4408 28.999C9.9593 28.5826 9.28075 28.3853 8.4271 28.4072C7.72666 28.4072 7.20134 28.5606 6.85112 28.8675C6.5009 29.1305 6.30391 29.5251 6.3258 29.9635C6.3258 30.2922 6.5009 30.5991 6.76357 30.7964C7.04812 31.0594 7.72666 31.3005 8.7992 31.5197C11.4477 32.0896 13.3301 32.6595 14.4902 33.2513C15.6503 33.8431 16.4821 34.5665 16.9855 35.4213C17.5109 36.2981 17.7735 37.3064 17.7735 38.3147C17.7735 39.5421 17.4014 40.7477 16.7229 41.7779C16.0005 42.8519 14.9937 43.6848 13.8117 44.189C12.564 44.737 10.9881 45.0219 9.10564 45.0219C5.77858 45.0219 3.48028 44.3863 2.18886 43.093C0.897431 41.7779 0.175109 40.1559 0 38.1831Z" fill="black"/>
<path d="M29.1117 36.6488L34.4088 38.2489C34.1242 39.586 33.5332 40.8573 32.7234 41.9752C31.9791 42.9615 30.9942 43.7287 29.8778 44.2328C28.7396 44.737 27.295 45 25.5439 45C23.4207 45 21.6696 44.6931 20.3344 44.0794C18.9773 43.4657 17.8172 42.3697 16.8323 40.8134C15.8473 39.2572 15.3657 37.2625 15.3657 34.8295C15.3657 31.5855 16.2194 29.0867 17.9486 27.3551C19.6778 25.6235 22.1074 24.7467 25.2594 24.7467C27.7328 24.7467 29.659 25.2508 31.0817 26.2372C32.4826 27.2455 33.5332 28.7798 34.2337 30.8402L28.8929 32.0239C28.7615 31.5636 28.5645 31.1033 28.3019 30.7087C27.9735 30.2484 27.5577 29.8977 27.0542 29.6347C26.5508 29.3716 25.9817 29.262 25.4126 29.262C24.0336 29.262 22.9829 29.81 22.2606 30.9279C21.7134 31.7389 21.4289 33.0321 21.4289 34.7857C21.4289 36.9557 21.7572 38.4462 22.4138 39.2572C23.0705 40.0682 23.9898 40.4627 25.1937 40.4627C26.3538 40.4627 27.2293 40.1339 27.8203 39.4983C28.4113 38.8188 28.8491 37.8763 29.1117 36.6488ZM41.4788 25.0755H47.52V31.9362H54.1304V25.0755H60.2154V44.6712H54.1304V36.7365H47.52V44.6712H41.4788V25.0755Z" fill="black"/>
<path d="M59.3838 34.8734C59.3838 31.6732 60.2812 29.1744 62.0542 27.399C63.8272 25.6235 66.3225 24.7249 69.4963 24.7249C72.7577 24.7249 75.253 25.6016 77.026 27.3552C78.799 29.1087 79.6745 31.5636 79.6745 34.72C79.6745 37.0215 79.2805 38.8846 78.5144 40.3532C77.7702 41.7999 76.6101 42.9835 75.1873 43.7726C73.7208 44.5836 71.9041 45.0001 69.7371 45.0001C67.5263 45.0001 65.7096 44.6494 64.2649 43.9479C62.7765 43.2027 61.5508 42.041 60.7409 40.6162C59.8435 39.0819 59.3838 37.1749 59.3838 34.8734ZM65.425 34.8953C65.425 36.8681 65.7971 38.2928 66.5195 39.1696C67.2418 40.0244 68.2487 40.4628 69.5182 40.4628C70.8096 40.4628 71.8165 40.0463 72.5388 39.1915C73.2611 38.3366 73.6114 36.8242 73.6114 34.6323C73.6114 32.7911 73.2393 31.4321 72.495 30.5992C71.7508 29.7443 70.744 29.3279 69.4744 29.3279C68.3581 29.284 67.2856 29.7663 66.5414 30.6211C65.7971 31.4759 65.425 32.9007 65.425 34.8953ZM85.869 34.8734C85.869 31.6732 86.7664 29.1744 88.5394 27.399C90.3123 25.6235 92.8076 24.7249 95.9815 24.7249C99.2429 24.7249 101.76 25.6016 103.511 27.3552C105.262 29.1087 106.16 31.5636 106.16 34.72C106.16 37.0215 105.766 38.8846 105 40.3532C104.255 41.7999 103.095 42.9835 101.673 43.7726C100.206 44.5836 98.3892 45.0001 96.2223 45.0001C94.0115 45.0001 92.1948 44.6494 90.7501 43.9479C89.2617 43.2027 88.0359 42.041 87.2261 40.6162C86.3286 39.0819 85.869 37.1749 85.869 34.8734ZM91.9102 34.8953C91.9102 36.8681 92.2823 38.2928 93.0046 39.1696C93.727 40.0244 94.7338 40.4628 96.0034 40.4628C97.2948 40.4628 98.3017 40.0463 99.024 39.1915C99.7463 38.3366 100.097 36.8242 100.097 34.6323C100.097 32.7911 99.7244 31.4321 98.9802 30.5992C98.236 29.7443 97.2291 29.3279 95.9596 29.3279C94.8433 29.284 93.7488 29.7663 93.0265 30.6211C92.2823 31.4759 91.9102 32.9007 91.9102 34.8953Z" fill="black"/>
<path d="M105.525 25.0754H111.566V39.8489H121V44.6712H105.503V25.0754H105.525Z" fill="black"/>
<path d="M98.8659 23.9447C104.948 19.3548 106.824 11.5742 103.055 6.56629C99.2864 1.55835 91.3007 1.21943 85.2184 5.8093C79.1362 10.3992 77.2606 18.1797 81.0293 23.1877C84.7979 28.1956 92.7836 28.5345 98.8659 23.9447Z" fill="white"/>
<mask id="mask0_11_370" style="mask-type:luminance" maskUnits="userSpaceOnUse" x="79" y="2" width="26" height="26">
<path d="M98.8659 23.9445C104.948 19.3547 106.824 11.5741 103.055 6.56617C99.2864 1.55823 91.3007 1.21931 85.2184 5.80918C79.1362 10.399 77.2606 18.1796 81.0293 23.1876C84.7979 28.1955 92.7836 28.5344 98.8659 23.9445Z" fill="white"/>
</mask>
<g mask="url(#mask0_11_370)">
<path d="M65.5176 12.3932L96.948 -11.3253L118.697 17.5758L87.2665 41.2942L65.5176 12.3932Z" fill="white"/>
<mask id="mask1_11_370" style="mask-type:luminance" maskUnits="userSpaceOnUse" x="65" y="-12" width="54" height="54">
<path d="M65.5176 12.3932L96.948 -11.3253L118.697 17.5758L87.2665 41.2942L65.5176 12.3932Z" fill="white"/>
</mask>
<g mask="url(#mask1_11_370)">
<path d="M98.8659 23.9445C104.948 19.3547 106.824 11.5741 103.055 6.56617C99.2864 1.55823 91.3007 1.21931 85.2184 5.80918C79.1362 10.399 77.2606 18.1796 81.0293 23.1876C84.7979 28.1955 92.7836 28.5344 98.8659 23.9445Z" fill="white"/>
<mask id="mask2_11_370" style="mask-type:luminance" maskUnits="userSpaceOnUse" x="79" y="2" width="26" height="26">
<path d="M98.8659 23.9445C104.948 19.3547 106.824 11.5741 103.055 6.56617C99.2864 1.55823 91.3007 1.21931 85.2184 5.80918C79.1362 10.399 77.2606 18.1796 81.0293 23.1876C84.7979 28.1955 92.7836 28.5344 98.8659 23.9445Z" fill="white"/>
</mask>
<g mask="url(#mask2_11_370)">
<path d="M74.27 14.323L96.2786 -2.28481L109.939 15.8683L87.9303 32.4761L74.27 14.323Z" fill="white"/>
<mask id="mask3_11_370" style="mask-type:luminance" maskUnits="userSpaceOnUse" x="74" y="-3" width="36" height="36">
<path d="M74.27 14.3229L96.2786 -2.28494L109.939 15.8682L87.9303 32.476L74.27 14.3229Z" fill="white"/>
</mask>
<g mask="url(#mask3_11_370)">
<path d="M98.8659 23.9444C104.948 19.3546 106.824 11.574 103.055 6.56605C99.2864 1.55811 91.3007 1.21919 85.2184 5.80906C79.1362 10.3989 77.2606 18.1795 81.0293 23.1874C84.7979 28.1954 92.7836 28.5343 98.8659 23.9444Z" fill="white" stroke="black" stroke-width="4" stroke-miterlimit="10"/>
</g>
<mask id="mask4_11_370" style="mask-type:luminance" maskUnits="userSpaceOnUse" x="77" y="-2" width="30" height="34">
<path d="M77.4062 25.2286L85.0063 -1.30222L106.821 4.95938L99.2213 31.4902L77.4062 25.2286Z" fill="white"/>
</mask>
<g mask="url(#mask4_11_370)">
<path d="M74.27 14.3263L96.2818 -2.28486L109.939 15.8649L87.927 32.4761L74.27 14.3263Z" stroke="black" stroke-width="4" stroke-miterlimit="10"/>
</g>
<path d="M98.8659 23.9445C104.948 19.3547 106.824 11.5741 103.055 6.56617C99.2864 1.55823 91.3007 1.21931 85.2184 5.80918C79.1362 10.399 77.2606 18.1796 81.0293 23.1876C84.7979 28.1955 92.7836 28.5344 98.8659 23.9445Z" stroke="black" stroke-width="4" stroke-miterlimit="10"/>
<path d="M74.27 14.323L96.2786 -2.28481L109.939 15.8683L87.9303 32.4761L74.27 14.323Z" fill="white"/>
<mask id="mask5_11_370" style="mask-type:luminance" maskUnits="userSpaceOnUse" x="74" y="-3" width="36" height="36">
<path d="M74.27 14.3229L96.2786 -2.28494L109.939 15.8682L87.9303 32.476L74.27 14.3229Z" fill="white"/>
</mask>
<g mask="url(#mask5_11_370)">
<path d="M98.8659 23.9444C104.948 19.3546 106.824 11.574 103.055 6.56605C99.2864 1.55811 91.3007 1.21919 85.2184 5.80906C79.1362 10.3989 77.2606 18.1795 81.0293 23.1874C84.7979 28.1954 92.7836 28.5343 98.8659 23.9444Z" fill="white" stroke="black" stroke-width="4" stroke-miterlimit="10"/>
</g>
<mask id="mask6_11_370" style="mask-type:luminance" maskUnits="userSpaceOnUse" x="77" y="-2" width="30" height="34">
<path d="M77.4062 25.2286L85.0063 -1.30222L106.821 4.95938L99.2213 31.4902L77.4062 25.2286Z" fill="white"/>
</mask>
<g mask="url(#mask6_11_370)">
<path d="M74.27 14.3263L96.2818 -2.28486L109.939 15.8649L87.927 32.4761L74.27 14.3263Z" stroke="black" stroke-width="4" stroke-miterlimit="10"/>
</g>
<path d="M65.5176 12.3932L96.948 -11.3253L118.697 17.5758L87.2665 41.2942L65.5176 12.3932Z" stroke="black" stroke-width="4" stroke-miterlimit="10"/>
</g>
<path d="M98.8659 23.9445C104.948 19.3547 106.824 11.5741 103.055 6.56617C99.2864 1.55823 91.3007 1.21931 85.2184 5.80918C79.1362 10.399 77.2606 18.1796 81.0293 23.1876C84.7979 28.1955 92.7836 28.5344 98.8659 23.9445Z" stroke="black" stroke-width="4" stroke-miterlimit="10"/>
<path d="M85.8908 13.4364L88.0796 11.902L90.7719 15.7379C91.2316 16.3516 91.5818 17.0092 91.8445 17.7325C91.9977 18.2805 91.9539 18.8723 91.735 19.3984C91.4505 20.056 90.9908 20.6039 90.3779 20.9985C89.6556 21.5026 89.0427 21.7876 88.5174 21.8753C88.014 21.9629 87.4886 21.8753 87.0071 21.6561C86.4818 21.393 86.0221 21.0204 85.6719 20.5382L87.5543 18.7847C87.7075 19.0258 87.9045 19.245 88.1234 19.4203C88.2766 19.5299 88.4517 19.5957 88.6487 19.5957C88.8019 19.5957 88.9552 19.5299 89.0646 19.4422C89.2835 19.3107 89.4367 19.0477 89.4148 18.7847C89.3492 18.412 89.1959 18.0394 88.9552 17.7545L85.8908 13.4364ZM92.4573 15.8694L94.4492 14.2912C94.6681 14.5543 94.9526 14.7515 95.2591 14.8611C95.6968 14.9926 96.1565 14.905 96.5286 14.62C96.7913 14.4447 97.0102 14.2036 97.0977 13.8967C97.229 13.5021 97.0102 13.0638 96.6162 12.9322C96.5505 12.9103 96.4848 12.8884 96.4192 12.8884C96.1565 12.8665 95.6968 12.9761 95.0183 13.261C93.902 13.7213 93.0264 13.8967 92.3698 13.8309C91.735 13.7652 91.144 13.4364 90.7938 12.8884C90.5311 12.5158 90.3998 12.0774 90.3779 11.639C90.3779 11.1349 90.5092 10.6307 90.7938 10.2143C91.2097 9.62246 91.7131 9.11832 92.326 8.72377C93.2453 8.08812 94.0552 7.78125 94.7556 7.78125C95.4561 7.78125 96.1127 8.11004 96.7256 8.78953L94.7556 10.3458C94.3616 9.84165 93.6174 9.73205 93.114 10.1266L93.0483 10.1924C92.8294 10.3239 92.6762 10.5211 92.5887 10.7623C92.523 10.9376 92.5668 11.1349 92.6762 11.2883C92.7638 11.3979 92.8951 11.4856 93.0483 11.4856C93.2234 11.5075 93.5299 11.4198 93.9676 11.2226C95.0621 10.7623 95.8938 10.4992 96.4629 10.4115C96.9445 10.3239 97.4479 10.3677 97.9076 10.565C98.3235 10.7403 98.6737 11.0472 98.9145 11.4198C99.2209 11.8582 99.396 12.3843 99.4179 12.9322C99.4398 13.5021 99.2866 14.0501 98.9801 14.5323C98.5861 15.1242 98.0827 15.6283 97.4917 16.0228C96.2878 16.8558 95.3028 17.2065 94.5149 17.075C93.6612 16.9435 92.9608 16.5051 92.4573 15.8694Z" fill="black"/>
</g>
</g>
</g>
<defs>
<clipPath id="clip0_11_370">
<rect width="121" height="45" fill="white"/>
</clipPath>
</defs>
</svg>
