<svg width="144" height="48" viewBox="0 0 144 48" fill="none" xmlns="http://www.w3.org/2000/svg">
<path d="M23.4461 14.6745H19.1216L12.8704 31.1926H16.7829L17.7978 28.3979H23.6961L22.6224 25.3091H18.7392L21.2691 18.2047L25.7701 31.2073H29.6826L23.4461 14.6745ZM89.1801 31.1779V14.6745H92.6661V28.0891H99.5204V31.1779H89.1801ZM109.228 31.1779V14.6745H112.7V28.0891H119.554V31.1779H109.228ZM69.9261 17.631C72.7944 17.631 75.1478 20.0139 75.1478 22.9409C75.1478 25.868 72.8091 28.2509 69.9261 28.2509C67.0579 28.2509 64.7192 25.868 64.7192 22.9409C64.7192 20.0139 67.0579 17.631 69.9261 17.631ZM69.9261 14.3951C65.2928 14.3951 61.5421 18.2194 61.5421 22.9409C61.5421 27.6625 65.2928 31.4868 69.9261 31.4868C74.5594 31.4868 78.3102 27.6625 78.3102 22.9409C78.3102 18.2194 74.5594 14.3951 69.9261 14.3951ZM135.542 17.631C138.425 17.631 140.764 20.0139 140.764 22.9409C140.764 25.868 138.425 28.2509 135.542 28.2509C132.674 28.2509 130.336 25.868 130.336 22.9409C130.321 20.0139 132.66 17.631 135.542 17.631ZM135.542 14.3951C130.909 14.3951 127.158 18.2194 127.158 22.9409C127.158 27.6625 130.909 31.4868 135.542 31.4868C140.176 31.4868 143.927 27.6625 143.927 22.9409C143.927 18.2194 140.176 14.3951 135.542 14.3951ZM47.3627 14.6745H39.8023V31.1926H43.2589V25.515H47.3627C50.2456 25.515 52.5844 23.0292 52.5844 20.1021C52.5844 17.1456 50.2456 14.6745 47.3627 14.6745ZM47.3627 22.2643H43.2589V17.8958H47.3627C48.4953 17.8958 49.4072 18.9254 49.4072 20.0727C49.4072 21.2347 48.4953 22.2643 47.3627 22.2643Z" fill="#3F20BA"/>
<path d="M36.8311 36.1937C36.5369 36.1937 36.2722 36.3408 36.1104 36.5761C36.1104 36.5761 35.3308 37.488 34.9043 37.9146C33.1245 39.7238 31.0652 41.1358 28.7559 42.1361C26.3731 43.1657 23.8432 43.6805 21.225 43.6805C18.6068 43.6805 16.0769 43.1657 13.694 42.1361C11.3995 41.1358 9.3255 39.7091 7.54572 37.8999C5.76595 36.0907 4.3686 33.9873 3.39782 31.6339C2.3829 29.2069 1.8828 26.6329 1.8828 23.9706C1.8828 21.3083 2.39761 18.7342 3.39782 16.3072C4.3686 13.9685 5.76595 11.8505 7.54572 10.0413C9.3255 8.23207 11.3847 6.80531 13.694 5.81981C16.0769 4.79019 18.6068 4.27538 21.225 4.27538C23.8432 4.27538 26.3731 4.79019 28.7559 5.81981C30.4328 6.54055 31.9919 7.49663 33.3892 8.65863C33.3157 8.87926 33.2716 9.12931 33.2716 9.37936C33.2716 10.6002 34.2424 11.6004 35.4485 11.6004C36.6546 11.6004 37.6254 10.6002 37.6254 9.37936C37.6254 8.15853 36.6546 7.15832 35.4485 7.15832C35.1543 7.15832 34.8601 7.21716 34.6101 7.33483C30.9623 4.29009 26.2996 2.46619 21.225 2.46619C9.56084 2.4809 0.103027 12.1005 0.103027 23.9853C0.103027 35.8701 9.56084 45.4897 21.225 45.4897C27.7557 45.4897 33.5805 42.4744 37.4636 37.7381C37.6254 37.5763 37.7284 37.341 37.7284 37.0909C37.7137 36.5908 37.3165 36.1937 36.8311 36.1937Z" fill="#3F20BA"/>
</svg>
