<svg width="12" height="13" viewBox="0 0 12 13" fill="none" xmlns="http://www.w3.org/2000/svg">
<path d="M1.32907 2.1275V10.8725C1.32909 11.0021 1.36272 11.1295 1.42666 11.2423C1.49061 11.3551 1.58269 11.4493 1.69392 11.5159C1.80515 11.5825 1.93174 11.6191 2.06134 11.6222C2.19094 11.6252 2.31911 11.5946 2.43337 11.5334L10.5949 7.1609C10.7144 7.09679 10.8143 7.00147 10.8839 6.88509C10.9535 6.76871 10.9903 6.63562 10.9903 6.5C10.9903 6.36438 10.9535 6.2313 10.8839 6.11492C10.8143 5.99854 10.7144 5.90322 10.5949 5.8391L2.43337 1.4666C2.31911 1.40536 2.19094 1.37478 2.06134 1.37785C1.93174 1.38091 1.80515 1.41752 1.69392 1.48409C1.58269 1.55066 1.49061 1.64493 1.42666 1.75769C1.36272 1.87046 1.32909 1.99787 1.32907 2.1275Z" stroke="white" stroke-linecap="round" stroke-linejoin="round"/>
</svg>
